<svg width="19" height="19" viewBox="0 0 19 19" fill="none" xmlns="http://www.w3.org/2000/svg">
<path d="M13.3601 5.3406C11.9889 4.55876 10.9238 3.95145 10.0587 3.55747C9.19046 3.16202 8.43678 2.9387 7.70391 3.01477C6.54078 3.1355 5.48192 3.73817 4.79188 4.67612C4.35602 5.26857 4.17455 6.02898 4.0871 6.97038C3.99999 7.90801 4 9.12326 4 10.6862V10.7513C4 12.3142 3.99999 13.5295 4.0871 14.4671C4.17455 15.4085 4.35602 16.1689 4.79188 16.7613C5.48192 17.6993 6.54078 18.302 7.70391 18.4227C8.43677 18.4988 9.19046 18.2754 10.0587 17.88C10.9238 17.486 11.9889 16.8787 13.3601 16.0969L13.4157 16.0651C14.7868 15.2834 15.852 14.6761 16.6301 14.1331C17.4104 13.5887 17.9856 13.0544 18.2872 12.3854C18.7654 11.3247 18.7654 10.1128 18.2872 9.05208C17.9856 8.38309 17.4104 7.84878 16.6301 7.30432C15.852 6.76141 14.7868 6.15409 13.4157 5.37231L13.3601 5.3406Z" fill="#555555"/>
</svg>
